<svg width="8" height="8" viewBox="0 0 8 8" fill="none" xmlns="http://www.w3.org/2000/svg">
<path d="M4.61532 0.30766C4.61535 0.137776 4.7531 3.70828e-05 4.92298 4.53889e-08L7.69234 0C7.86223 3.27319e-05 7.99997 0.137774 8 0.30766V3.07702C7.99996 3.2469 7.86222 3.38465 7.69234 3.38468C7.52243 3.38468 7.38472 3.24692 7.38468 3.07702V1.05046L1.05046 7.38468H3.07702C3.2469 7.38475 3.38468 7.52245 3.38468 7.69234C3.38468 7.86223 3.2469 7.99993 3.07702 8L0.30766 8C0.137726 8 0 7.86227 0 7.69234L8.42938e-08 4.92298C6.98601e-05 4.7531 0.137769 4.61532 0.30766 4.61532C0.477551 4.61532 0.61525 4.7531 0.615319 4.92298L0.615319 6.94954L6.94954 0.615319L4.92298 0.615319C4.75308 0.615282 4.61532 0.477571 4.61532 0.30766Z" fill="black"/>
</svg>
