<svg width="19" height="18" viewBox="0 0 19 18" fill="none" xmlns="http://www.w3.org/2000/svg">
<path d="M3.37402 17.0654C2.37207 17.0654 1.60449 16.7988 1.07129 16.2656C0.538086 15.7383 0.271484 14.9766 0.271484 13.9805V3.3457C0.271484 2.34961 0.538086 1.58789 1.07129 1.06055C1.60449 0.527344 2.37207 0.260742 3.37402 0.260742H15.626C16.6279 0.260742 17.3926 0.527344 17.9199 1.06055C18.4531 1.58789 18.7197 2.34961 18.7197 3.3457V13.9805C18.7197 14.9766 18.4531 15.7383 17.9199 16.2656C17.3926 16.7988 16.6279 17.0654 15.626 17.0654H3.37402ZM3.54102 14.7979H15.4502C15.7783 14.7979 16.0273 14.7158 16.1973 14.5518C16.3672 14.3877 16.4521 14.1328 16.4521 13.7871V5.96484C16.4521 5.625 16.3672 5.37305 16.1973 5.20898C16.0273 5.04492 15.7783 4.96289 15.4502 4.96289H3.54102C3.21289 4.96289 2.96387 5.04492 2.79395 5.20898C2.62402 5.37305 2.53906 5.625 2.53906 5.96484V13.7871C2.53906 14.1328 2.62402 14.3877 2.79395 14.5518C2.96387 14.7158 3.21289 14.7979 3.54102 14.7979ZM7.85645 7.81934C7.69238 7.81934 7.57812 7.78711 7.51367 7.72266C7.44922 7.6582 7.41699 7.54688 7.41699 7.38867V6.87012C7.41699 6.71191 7.44922 6.60352 7.51367 6.54492C7.57812 6.48047 7.69238 6.44824 7.85645 6.44824H8.36621C8.53027 6.44824 8.64453 6.48047 8.70898 6.54492C8.77344 6.60352 8.80566 6.71191 8.80566 6.87012V7.38867C8.80566 7.54688 8.77344 7.6582 8.70898 7.72266C8.64453 7.78711 8.53027 7.81934 8.36621 7.81934H7.85645ZM10.6426 7.81934C10.4844 7.81934 10.373 7.78711 10.3086 7.72266C10.2441 7.6582 10.2119 7.54688 10.2119 7.38867V6.87012C10.2119 6.71191 10.2441 6.60352 10.3086 6.54492C10.373 6.48047 10.4844 6.44824 10.6426 6.44824H11.1611C11.3252 6.44824 11.4395 6.48047 11.5039 6.54492C11.5684 6.60352 11.6006 6.71191 11.6006 6.87012V7.38867C11.6006 7.54688 11.5684 7.6582 11.5039 7.72266C11.4395 7.78711 11.3252 7.81934 11.1611 7.81934H10.6426ZM13.4375 7.81934C13.2793 7.81934 13.168 7.78711 13.1035 7.72266C13.0391 7.6582 13.0068 7.54688 13.0068 7.38867V6.87012C13.0068 6.71191 13.0391 6.60352 13.1035 6.54492C13.168 6.48047 13.2793 6.44824 13.4375 6.44824H13.9561C14.1201 6.44824 14.2344 6.48047 14.2988 6.54492C14.3633 6.60352 14.3955 6.71191 14.3955 6.87012V7.38867C14.3955 7.54688 14.3633 7.6582 14.2988 7.72266C14.2344 7.78711 14.1201 7.81934 13.9561 7.81934H13.4375ZM5.06152 10.5615C4.89746 10.5615 4.7832 10.5322 4.71875 10.4736C4.6543 10.4092 4.62207 10.2979 4.62207 10.1396V9.62109C4.62207 9.46289 4.6543 9.35449 4.71875 9.2959C4.7832 9.23145 4.89746 9.19922 5.06152 9.19922H5.58008C5.73828 9.19922 5.84961 9.23145 5.91406 9.2959C5.97852 9.35449 6.01074 9.46289 6.01074 9.62109V10.1396C6.01074 10.2979 5.97852 10.4092 5.91406 10.4736C5.84961 10.5322 5.73828 10.5615 5.58008 10.5615H5.06152ZM7.85645 10.5615C7.69238 10.5615 7.57812 10.5322 7.51367 10.4736C7.44922 10.4092 7.41699 10.2979 7.41699 10.1396V9.62109C7.41699 9.46289 7.44922 9.35449 7.51367 9.2959C7.57812 9.23145 7.69238 9.19922 7.85645 9.19922H8.36621C8.53027 9.19922 8.64453 9.23145 8.70898 9.2959C8.77344 9.35449 8.80566 9.46289 8.80566 9.62109V10.1396C8.80566 10.2979 8.77344 10.4092 8.70898 10.4736C8.64453 10.5322 8.53027 10.5615 8.36621 10.5615H7.85645ZM10.6426 10.5615C10.4844 10.5615 10.373 10.5322 10.3086 10.4736C10.2441 10.4092 10.2119 10.2979 10.2119 10.1396V9.62109C10.2119 9.46289 10.2441 9.35449 10.3086 9.2959C10.373 9.23145 10.4844 9.19922 10.6426 9.19922H11.1611C11.3252 9.19922 11.4395 9.23145 11.5039 9.2959C11.5684 9.35449 11.6006 9.46289 11.6006 9.62109V10.1396C11.6006 10.2979 11.5684 10.4092 11.5039 10.4736C11.4395 10.5322 11.3252 10.5615 11.1611 10.5615H10.6426ZM13.4375 10.5615C13.2793 10.5615 13.168 10.5322 13.1035 10.4736C13.0391 10.4092 13.0068 10.2979 13.0068 10.1396V9.62109C13.0068 9.46289 13.0391 9.35449 13.1035 9.2959C13.168 9.23145 13.2793 9.19922 13.4375 9.19922H13.9561C14.1201 9.19922 14.2344 9.23145 14.2988 9.2959C14.3633 9.35449 14.3955 9.46289 14.3955 9.62109V10.1396C14.3955 10.2979 14.3633 10.4092 14.2988 10.4736C14.2344 10.5322 14.1201 10.5615 13.9561 10.5615H13.4375ZM5.06152 13.3125C4.89746 13.3125 4.7832 13.2832 4.71875 13.2246C4.6543 13.1602 4.62207 13.0459 4.62207 12.8818V12.3721C4.62207 12.208 4.6543 12.0967 4.71875 12.0381C4.7832 11.9795 4.89746 11.9502 5.06152 11.9502H5.58008C5.73828 11.9502 5.84961 11.9795 5.91406 12.0381C5.97852 12.0967 6.01074 12.208 6.01074 12.3721V12.8818C6.01074 13.0459 5.97852 13.1602 5.91406 13.2246C5.84961 13.2832 5.73828 13.3125 5.58008 13.3125H5.06152ZM7.85645 13.3125C7.69238 13.3125 7.57812 13.2832 7.51367 13.2246C7.44922 13.1602 7.41699 13.0459 7.41699 12.8818V12.3721C7.41699 12.208 7.44922 12.0967 7.51367 12.0381C7.57812 11.9795 7.69238 11.9502 7.85645 11.9502H8.36621C8.53027 11.9502 8.64453 11.9795 8.70898 12.0381C8.77344 12.0967 8.80566 12.208 8.80566 12.3721V12.8818C8.80566 13.0459 8.77344 13.1602 8.70898 13.2246C8.64453 13.2832 8.53027 13.3125 8.36621 13.3125H7.85645ZM10.6426 13.3125C10.4844 13.3125 10.373 13.2832 10.3086 13.2246C10.2441 13.1602 10.2119 13.0459 10.2119 12.8818V12.3721C10.2119 12.208 10.2441 12.0967 10.3086 12.0381C10.373 11.9795 10.4844 11.9502 10.6426 11.9502H11.1611C11.3252 11.9502 11.4395 11.9795 11.5039 12.0381C11.5684 12.0967 11.6006 12.208 11.6006 12.3721V12.8818C11.6006 13.0459 11.5684 13.1602 11.5039 13.2246C11.4395 13.2832 11.3252 13.3125 11.1611 13.3125H10.6426Z" fill="#14AE5C"/>
</svg>
