<svg width="29" height="29" viewBox="0 0 29 29" fill="none" xmlns="http://www.w3.org/2000/svg">
<path d="M14.5703 28.252C12.6198 28.252 10.7923 27.8828 9.08789 27.1445C7.38346 26.4154 5.88411 25.4036 4.58984 24.1094C3.29557 22.8151 2.2793 21.3158 1.54102 19.6113C0.811849 17.9069 0.447266 16.0794 0.447266 14.1289C0.447266 12.1784 0.811849 10.3509 1.54102 8.64648C2.2793 6.93294 3.29557 5.43359 4.58984 4.14844C5.88411 2.85417 7.38346 1.84245 9.08789 1.11328C10.7923 0.375 12.6198 0.00585938 14.5703 0.00585938C16.5208 0.00585938 18.3483 0.375 20.0527 1.11328C21.7663 1.84245 23.2702 2.85417 24.5645 4.14844C25.8587 5.43359 26.8704 6.93294 27.5996 8.64648C28.3379 10.3509 28.707 12.1784 28.707 14.1289C28.707 16.0794 28.3379 17.9069 27.5996 19.6113C26.8704 21.3158 25.8587 22.8151 24.5645 24.1094C23.2702 25.4036 21.7663 26.4154 20.0527 27.1445C18.3483 27.8828 16.5208 28.252 14.5703 28.252ZM5.46484 15.4551H6.92773C7.12826 16.6764 7.58854 17.7747 8.30859 18.75C9.03776 19.7161 9.94466 20.4818 11.0293 21.0469C12.1139 21.612 13.2943 21.8945 14.5703 21.8945C15.4544 21.8945 16.2884 21.7578 17.0723 21.4844C17.8652 21.2018 18.5579 20.8281 19.1504 20.3633C19.5241 20.099 19.7337 19.7936 19.7793 19.4473C19.8249 19.0918 19.7565 18.791 19.5742 18.5449C19.401 18.3171 19.1549 18.1758 18.8359 18.1211C18.5169 18.0573 18.166 18.1576 17.7832 18.4219C17.3548 18.75 16.8672 19.0143 16.3203 19.2148C15.7826 19.4154 15.1992 19.5156 14.5703 19.5156C13.7318 19.5156 12.9525 19.3424 12.2324 18.9961C11.5215 18.6406 10.9154 18.1576 10.4141 17.5469C9.91276 16.9271 9.56185 16.2298 9.36133 15.4551H10.5098C10.8561 15.4551 11.0703 15.3184 11.1523 15.0449C11.2435 14.7715 11.1934 14.498 11.002 14.2246L8.71875 11.1211C8.51823 10.8477 8.27214 10.7064 7.98047 10.6973C7.6888 10.6882 7.43815 10.8294 7.22852 11.1211L4.98633 14.2246C4.78581 14.498 4.72656 14.7715 4.80859 15.0449C4.89974 15.3184 5.11849 15.4551 5.46484 15.4551ZM23.6895 12.8027H22.2129C22.0033 11.5814 21.5384 10.4876 20.8184 9.52148C20.0983 8.54622 19.196 7.77604 18.1113 7.21094C17.0358 6.64583 15.8555 6.36328 14.5703 6.36328C13.6862 6.36328 12.8477 6.50456 12.0547 6.78711C11.2708 7.06055 10.5827 7.42513 9.99023 7.88086C9.61654 8.1543 9.4069 8.46875 9.36133 8.82422C9.31576 9.17057 9.38411 9.4668 9.56641 9.71289C9.73047 9.94076 9.97201 10.082 10.291 10.1367C10.6191 10.1914 10.9701 10.0911 11.3438 9.83594C11.7904 9.50781 12.2826 9.24349 12.8203 9.04297C13.3581 8.84245 13.9414 8.74219 14.5703 8.74219C15.4089 8.74219 16.1836 8.91992 16.8945 9.27539C17.6146 9.62174 18.2253 10.1048 18.7266 10.7246C19.2279 11.3353 19.5742 12.028 19.7656 12.8027H18.6172C18.2799 12.8027 18.0658 12.9395 17.9746 13.2129C17.8926 13.4863 17.9473 13.7552 18.1387 14.0195L20.4219 17.1367C20.6133 17.4102 20.8548 17.5514 21.1465 17.5605C21.4473 17.5605 21.7025 17.4193 21.9121 17.1367L24.1406 14.0195C24.3411 13.7552 24.4004 13.4863 24.3184 13.2129C24.2363 12.9395 24.0267 12.8027 23.6895 12.8027Z" fill="#14AE5C"/>
</svg>
