<svg width="12" height="12" viewBox="0 0 12 12" fill="none" xmlns="http://www.w3.org/2000/svg">
<path d="M6.37601 0C6.73086 0.0852868 7.09162 0.114809 7.4491 0.200752C9.57359 0.709192 11.3485 2.51202 11.8197 4.64419C11.8965 4.99125 11.909 5.33698 11.9944 5.67682C11.9826 5.892 12.0115 6.11506 11.9944 6.32959C11.6475 10.7291 6.9142 13.4478 2.98458 11.1857C-2.13444 8.2387 -0.279373 0.481542 5.59206 0H6.37601ZM8.31979 4.12132C8.20282 4.14035 8.0392 4.26237 7.94194 4.33716L4.89682 7.36812C4.71611 7.40027 3.73239 6.0921 3.38871 6.01534C2.93726 5.91431 2.56664 6.33484 2.76707 6.76915L4.57877 8.61265C4.89222 8.81997 5.06176 8.72615 5.33184 8.51621L8.84944 4.98272C9.09586 4.5799 8.78767 4.04456 8.31914 4.12066L8.31979 4.12132Z" fill="#9E9E9E"/>
</svg>
