<svg width="28" height="28" viewBox="0 0 28 28" fill="none" xmlns="http://www.w3.org/2000/svg">
<circle cx="14" cy="14" r="14" fill="#F1F0F3"/>
<path d="M8.29635 8.29289C8.68687 7.90237 9.32004 7.90237 9.71056 8.29289L13.9532 12.5355L18.1924 8.29635C18.5829 7.90582 19.2161 7.90582 19.6066 8.29635C19.9971 8.68687 19.9971 9.32004 19.6066 9.71056L15.3674 13.9497L19.6101 18.1924C20.0006 18.5829 20.0006 19.2161 19.6101 19.6066C19.2195 19.997 18.5863 19.9971 18.1958 19.6066L13.9532 15.364L9.70711 19.6101C9.31658 20.0006 8.68342 20.0006 8.29289 19.6101C7.90237 19.2195 7.90237 18.5864 8.29289 18.1958L12.539 13.9497L8.29635 9.70711C7.90585 9.31661 7.90591 8.68342 8.29635 8.29289Z" fill="#666868"/>
</svg>
