<svg width="13" height="13" viewBox="0 0 13 13" fill="none" xmlns="http://www.w3.org/2000/svg">
<path d="M6.90734 0C7.29176 0.092394 7.68259 0.124377 8.06986 0.217481C10.3714 0.768292 12.2942 2.72136 12.8046 5.03121C12.8879 5.40718 12.9014 5.78173 12.994 6.14989C12.9812 6.38301 13.0125 6.62465 12.994 6.85706C12.6181 11.6232 7.49038 14.5684 3.23329 12.1178C-2.31231 8.92526 -0.302654 0.521671 6.05806 0H6.90734ZM9.01311 4.46476C8.88639 4.48537 8.70913 4.61757 8.60377 4.69859L5.30489 7.98213C5.10912 8.01696 4.04342 6.59978 3.6711 6.51662C3.18204 6.40717 2.78053 6.86274 2.99766 7.33324L4.96033 9.33037C5.2999 9.55496 5.48357 9.45333 5.77616 9.2259L9.58689 5.39794C9.85385 4.96156 9.51997 4.38161 9.0124 4.46405L9.01311 4.46476Z" fill="white" fill-opacity="0.9"/>
</svg>
