<svg width="16" height="16" viewBox="0 0 16 16" fill="none" xmlns="http://www.w3.org/2000/svg">
<path d="M8 0C12.4183 0 16 3.58172 16 8C16 12.4183 12.4183 16 8 16C3.58172 16 0 12.4183 0 8C0 3.58172 3.58172 0 8 0ZM5.54883 4.73828C5.32565 4.51536 4.96331 4.5152 4.74023 4.73828C4.51722 4.96136 4.51734 5.32372 4.74023 5.54688L7.16504 7.97168L4.73828 10.3975C4.51532 10.6206 4.51524 10.983 4.73828 11.2061C4.96138 11.4292 5.3237 11.429 5.54688 11.2061L7.97363 8.7793L10.3975 11.2041C10.6206 11.4271 10.9829 11.4272 11.2061 11.2041C11.4292 10.981 11.4291 10.6187 11.2061 10.3955L8.78125 7.97168L11.2041 5.54883C11.4271 5.32566 11.4272 4.96333 11.2041 4.74023C10.981 4.51719 10.6187 4.51729 10.3955 4.74023L7.97363 7.16309L5.54883 4.73828Z" fill="#F1F0F3"/>
</svg>
