<svg width="41" height="41" viewBox="0 0 41 41" fill="none" xmlns="http://www.w3.org/2000/svg">
<path d="M10.6185 30.7735C9.23929 29.3942 8.20809 27.841 7.52492 26.1137C6.83531 24.3929 6.4905 22.6173 6.4905 20.787C6.4905 18.9566 6.83208 17.1778 7.51525 15.4505C8.20487 13.7297 9.23929 12.1797 10.6185 10.8005C11.9977 9.42122 13.5478 8.38681 15.2686 7.69719C17.0023 7.00758 18.7811 6.66599 20.605 6.67244C22.4354 6.67244 24.211 7.01725 25.9318 7.70686C27.659 8.39003 29.2123 9.42122 30.5915 10.8005C31.9707 12.1797 33.0019 13.7329 33.6851 15.4602C34.3812 17.1874 34.7292 18.9662 34.7292 20.7966C34.7356 22.6206 34.3908 24.3961 33.6948 26.1234C33.0116 27.8507 31.9804 29.4039 30.6012 30.7831C29.222 32.1623 27.6687 33.1935 25.9415 33.8767C24.2207 34.5663 22.4451 34.9111 20.6147 34.9111C18.7843 34.9111 17.0055 34.5631 15.2782 33.867C13.551 33.1839 11.9977 32.1527 10.6185 30.7735ZM15.9646 25.4273C16.2418 25.7045 16.5608 25.843 16.9217 25.843C17.2826 25.843 17.6017 25.7045 17.8788 25.4273L20.6243 22.6818L23.3699 25.4273C23.6535 25.7109 23.9693 25.8527 24.3173 25.8527C24.6718 25.8592 24.9876 25.7238 25.2647 25.4467C25.5483 25.1631 25.6869 24.8441 25.6804 24.4896C25.6869 24.1351 25.5483 23.8161 25.2647 23.5325L22.5192 20.787L25.2647 18.0414C25.5419 17.7643 25.6804 17.4452 25.6804 17.0843C25.6804 16.7234 25.5419 16.4044 25.2647 16.1272C24.9876 15.8501 24.6718 15.7148 24.3173 15.7212C23.9629 15.7276 23.647 15.8694 23.3699 16.1466L20.6243 18.8921L17.8788 16.1466C17.6017 15.8694 17.2826 15.7309 16.9217 15.7309C16.5672 15.7244 16.2482 15.863 15.9646 16.1466C15.6875 16.4237 15.5521 16.7395 15.5586 17.094C15.565 17.4485 15.7068 17.7643 15.984 18.0414L18.7295 20.787L15.984 23.5325C15.7068 23.8097 15.565 24.1255 15.5586 24.4799C15.5521 24.8344 15.6875 25.1502 15.9646 25.4273Z" fill="#14AE5C"/>
</svg>
