<svg width="29" height="29" viewBox="0 0 29 29" fill="none" xmlns="http://www.w3.org/2000/svg">
<path d="M14.5703 28.2656C12.6198 28.2656 10.7923 27.8965 9.08789 27.1582C7.38346 26.429 5.88411 25.4173 4.58984 24.123C3.29557 22.8288 2.2793 21.3294 1.54102 19.625C0.811849 17.9206 0.447266 16.0931 0.447266 14.1426C0.447266 12.1921 0.811849 10.3646 1.54102 8.66016C2.2793 6.94661 3.29557 5.44727 4.58984 4.16211C5.88411 2.86784 7.38346 1.85612 9.08789 1.12695C10.7923 0.388672 12.6198 0.0195312 14.5703 0.0195312C16.5208 0.0195312 18.3483 0.388672 20.0527 1.12695C21.7663 1.85612 23.2702 2.86784 24.5645 4.16211C25.8587 5.44727 26.8704 6.94661 27.5996 8.66016C28.3379 10.3646 28.707 12.1921 28.707 14.1426C28.707 16.0931 28.3379 17.9206 27.5996 19.625C26.8704 21.3294 25.8587 22.8288 24.5645 24.123C23.2702 25.4173 21.7663 26.429 20.0527 27.1582C18.3483 27.8965 16.5208 28.2656 14.5703 28.2656ZM10.1953 20.2539L19.2598 11.1895L17.4414 9.37109L8.39062 18.4219L7.59766 20.3223C7.50651 20.5319 7.53841 20.7142 7.69336 20.8691C7.85742 21.015 8.03516 21.0514 8.22656 20.9785L10.1953 20.2539ZM20.1211 10.3418L21.1602 9.31641C21.4062 9.07031 21.5339 8.81055 21.543 8.53711C21.5521 8.25456 21.4427 7.99935 21.2148 7.77148L20.873 7.42969C20.6361 7.20182 20.3809 7.09701 20.1074 7.11523C19.834 7.12435 19.5788 7.2474 19.3418 7.48438L18.3027 8.52344L20.1211 10.3418Z" fill="#14AE5C"/>
</svg>
