<svg width="19" height="19" viewBox="0 0 19 19" fill="none" xmlns="http://www.w3.org/2000/svg">
<path d="M12.3242 5.47949C12.3242 6.08887 12.21 6.65137 11.9814 7.16699C11.7529 7.68262 11.4453 8.12207 11.0586 8.48535L5.82031 3.23828C6.14844 2.75195 6.56445 2.3623 7.06836 2.06934C7.57812 1.77637 8.12891 1.62988 8.7207 1.62988C9.37695 1.62988 9.97754 1.80273 10.5225 2.14844C11.0674 2.48828 11.5039 2.95117 11.832 3.53711C12.1602 4.12305 12.3242 4.77051 12.3242 5.47949ZM1.24121 16.29C1.24121 15.7568 1.39648 15.1973 1.70703 14.6113C2.02344 14.0254 2.47754 13.4717 3.06934 12.9502C3.66113 12.4287 4.37305 11.9893 5.20508 11.6318C6.03711 11.2744 6.97168 11.0605 8.00879 10.9902L14.6797 17.6611C14.6504 17.6611 14.6182 17.6611 14.583 17.6611C14.5537 17.667 14.5215 17.6699 14.4863 17.6699H2.95508C2.42188 17.6699 2.00293 17.5469 1.69824 17.3008C1.39355 17.0547 1.24121 16.7178 1.24121 16.29ZM17.1494 18.3994L0.538086 1.78809C0.397461 1.64746 0.327148 1.47461 0.327148 1.26953C0.327148 1.05859 0.397461 0.882812 0.538086 0.742188C0.68457 0.595703 0.860352 0.525391 1.06543 0.53125C1.27051 0.53125 1.44629 0.601562 1.59277 0.742188L18.1953 17.3447C18.3418 17.4912 18.4121 17.6641 18.4062 17.8633C18.4062 18.0684 18.3359 18.2441 18.1953 18.3906C18.0547 18.5371 17.8818 18.6104 17.6768 18.6104C17.4717 18.6104 17.2959 18.54 17.1494 18.3994Z" fill="#14AE5C"/>
</svg>
