<svg width="19" height="18" viewBox="0 0 19 18" fill="none" xmlns="http://www.w3.org/2000/svg">
<path d="M1.80518 16.876C1.50635 16.876 1.27393 16.793 1.10791 16.627C0.947428 16.4609 0.867188 16.223 0.867188 15.9131V4.74854C0.867188 4.46631 0.925293 4.22559 1.0415 4.02637C1.15771 3.82161 1.33757 3.65007 1.58105 3.51172L5.89746 1.05469C6.15755 0.89974 6.44255 0.822266 6.75244 0.822266C7.0568 0.822266 7.33626 0.89974 7.59082 1.05469L12.0981 3.81885L16.4976 1.37012C16.6359 1.29818 16.7604 1.24561 16.8711 1.2124C16.9818 1.17367 17.0897 1.1543 17.1948 1.1543C17.4937 1.1543 17.7233 1.2373 17.8838 1.40332C18.0498 1.56934 18.1328 1.80452 18.1328 2.10889V13.29C18.1328 13.5667 18.0747 13.8075 17.9585 14.0122C17.8423 14.2114 17.6597 14.3802 17.4106 14.5186L13.0693 16.9839C12.8203 17.1278 12.5436 17.1997 12.2393 17.1997C11.9183 17.1997 11.6084 17.1167 11.3096 16.9507L6.71924 14.3774L2.49414 16.6519C2.36133 16.7293 2.23958 16.7847 2.12891 16.8179C2.01823 16.8566 1.91032 16.876 1.80518 16.876ZM6.17969 13.0576V2.45752C6.12988 2.48519 6.08008 2.51286 6.03027 2.54053C5.986 2.5682 5.9362 2.59587 5.88086 2.62354L2.47754 4.61572C2.37793 4.67106 2.30599 4.73747 2.26172 4.81494C2.22298 4.88688 2.20361 4.97266 2.20361 5.07227V15.0249C2.20361 15.1134 2.23958 15.1577 2.31152 15.1577C2.33919 15.1577 2.3807 15.1439 2.43604 15.1162L6.17969 13.0576ZM7.51611 13.1904L11.1187 15.2241C11.1795 15.2573 11.2404 15.2878 11.3013 15.3154C11.3621 15.3486 11.423 15.3818 11.4839 15.415V5.03906L7.78174 2.78125C7.73747 2.75358 7.6932 2.72868 7.64893 2.70654C7.60465 2.67887 7.56038 2.65397 7.51611 2.63184V13.1904ZM12.8203 15.5645C12.8812 15.5312 12.9421 15.498 13.0029 15.4648C13.0693 15.4316 13.133 15.3957 13.1938 15.3569L16.5225 13.4229C16.6221 13.3675 16.6912 13.3011 16.73 13.2236C16.7743 13.1462 16.7964 13.0576 16.7964 12.958V3.00537C16.7964 2.9611 16.7853 2.9279 16.7632 2.90576C16.7466 2.88363 16.7189 2.87256 16.6802 2.87256C16.658 2.87256 16.6193 2.88639 16.564 2.91406L12.8203 4.95605V15.5645Z" fill="#14AE5C"/>
</svg>
