<svg width="30" height="28" viewBox="0 0 30 28" fill="none" xmlns="http://www.w3.org/2000/svg">
<mask id="path-1-inside-1_57_1365" fill="white">
<path d="M22.5098 0C22.5098 0.933541 22.6945 1.85821 23.0518 2.7207C23.409 3.58324 23.9326 4.36718 24.5928 5.02734C25.253 5.68753 26.0368 6.21107 26.8994 6.56836C27.762 6.92564 28.6865 7.11035 29.6201 7.11035V12.2646C28.0096 12.2646 26.4147 11.9473 24.9268 11.3311C24.0464 10.9664 23.2155 10.4983 22.4463 9.94336V20.1318H19.4385L18.835 20.1172C17.4305 20.048 16.047 19.7375 14.7451 19.1982C13.8649 18.8336 13.0338 18.3664 12.2646 17.8115V28H7.11035C7.11035 27.0666 6.92648 26.1417 6.56934 25.2793C6.21204 24.4167 5.68754 23.6328 5.02734 22.9727C4.36714 22.3125 3.5833 21.7889 2.7207 21.4316C1.85816 21.0744 0.933604 20.8896 0 20.8896V15.7354C1.61047 15.7354 3.20547 16.0527 4.69336 16.6689C5.57335 17.0334 6.40491 17.5001 7.17383 18.0547V7.86816H12.3281C12.3281 8.80175 12.5128 9.72635 12.8701 10.5889C13.2274 11.4513 13.751 12.2354 14.4111 12.8955C15.0713 13.5556 15.8553 14.0793 16.7178 14.4365C16.9269 14.5231 17.1398 14.599 17.3555 14.665V0H22.5098Z"/>
</mask>
<path d="M22.5098 0C22.5098 0.933541 22.6945 1.85821 23.0518 2.7207C23.409 3.58324 23.9326 4.36718 24.5928 5.02734C25.253 5.68753 26.0368 6.21107 26.8994 6.56836C27.762 6.92564 28.6865 7.11035 29.6201 7.11035V12.2646C28.0096 12.2646 26.4147 11.9473 24.9268 11.3311C24.0464 10.9664 23.2155 10.4983 22.4463 9.94336V20.1318H19.4385L18.835 20.1172C17.4305 20.048 16.047 19.7375 14.7451 19.1982C13.8649 18.8336 13.0338 18.3664 12.2646 17.8115V28H7.11035C7.11035 27.0666 6.92648 26.1417 6.56934 25.2793C6.21204 24.4167 5.68754 23.6328 5.02734 22.9727C4.36714 22.3125 3.5833 21.7889 2.7207 21.4316C1.85816 21.0744 0.933604 20.8896 0 20.8896V15.7354C1.61047 15.7354 3.20547 16.0527 4.69336 16.6689C5.57335 17.0334 6.40491 17.5001 7.17383 18.0547V7.86816H12.3281C12.3281 8.80175 12.5128 9.72635 12.8701 10.5889C13.2274 11.4513 13.751 12.2354 14.4111 12.8955C15.0713 13.5556 15.8553 14.0793 16.7178 14.4365C16.9269 14.5231 17.1398 14.599 17.3555 14.665V0H22.5098Z" fill="black"/>
<path d="M22.5098 0L23.5098 8.7425e-08V-1H22.5098V0ZM23.0518 2.7207L22.1279 3.10336L22.1279 3.10339L23.0518 2.7207ZM24.5928 5.02734L23.8857 5.73445L23.8857 5.73446L24.5928 5.02734ZM26.8994 6.56836L26.5167 7.49224L26.5167 7.49224L26.8994 6.56836ZM29.6201 7.11035H30.6201V6.11035H29.6201V7.11035ZM29.6201 12.2646V13.2646H30.6201V12.2646H29.6201ZM24.9268 11.3311L24.5441 12.2549L24.5441 12.2549L24.9268 11.3311ZM22.4463 9.94336L23.0314 9.13238L21.4463 7.98883V9.94336H22.4463ZM22.4463 20.1318V21.1318H23.4463V20.1318H22.4463ZM19.4385 20.1318L19.4142 21.1315L19.4263 21.1318H19.4385V20.1318ZM18.835 20.1172L18.7858 21.116L18.7982 21.1166L18.8107 21.1169L18.835 20.1172ZM14.7451 19.1982L14.3624 20.1221L14.3625 20.1221L14.7451 19.1982ZM12.2646 17.8115L12.8497 17.0005L11.2646 15.8571V17.8115H12.2646ZM12.2646 28V29H13.2646V28H12.2646ZM7.11035 28H6.11035V29H7.11035V28ZM6.56934 25.2793L7.49325 24.8967L7.49321 24.8966L6.56934 25.2793ZM5.02734 22.9727L5.73444 22.2655H5.73444L5.02734 22.9727ZM2.7207 21.4316L3.10338 20.5078L3.10335 20.5077L2.7207 21.4316ZM0 20.8896H-1V21.8896H0V20.8896ZM0 15.7354L-4.37103e-08 14.7354H-1V15.7354H0ZM4.69336 16.6689L5.07603 15.7451L5.07601 15.7451L4.69336 16.6689ZM7.17383 18.0547L6.58883 18.8657L8.17383 20.009V18.0547H7.17383ZM7.17383 7.86816V6.86816H6.17383V7.86816H7.17383ZM12.3281 7.86816L13.3281 7.86814L13.3281 6.86816H12.3281V7.86816ZM12.8701 10.5889L11.9462 10.9716L11.9463 10.9716L12.8701 10.5889ZM14.4111 12.8955L13.704 13.6026L13.7041 13.6027L14.4111 12.8955ZM16.7178 14.4365L16.3351 15.3604L16.3351 15.3604L16.7178 14.4365ZM17.3555 14.665L17.0625 15.6212L18.3555 16.0173V14.665H17.3555ZM17.3555 0V-1H16.3555V0H17.3555ZM22.5098 0L21.5098 -8.7425e-08C21.5098 1.06547 21.7206 2.12011 22.1279 3.10336L23.0518 2.7207L23.9757 2.33805C23.6684 1.59631 23.5098 0.801616 23.5098 8.7425e-08L22.5098 0ZM23.0518 2.7207L22.1279 3.10339C22.5354 4.08712 23.1325 4.98132 23.8857 5.73445L24.5928 5.02734L25.2999 4.32024C24.7327 3.75303 24.2827 3.07936 23.9756 2.33801L23.0518 2.7207ZM24.5928 5.02734L23.8857 5.73446C24.6388 6.48758 25.5329 7.08475 26.5167 7.49224L26.8994 6.56836L27.2821 5.64448C26.5407 5.3374 25.8671 4.88747 25.2999 4.32023L24.5928 5.02734ZM26.8994 6.56836L26.5167 7.49224C27.5001 7.89954 28.5546 8.11035 29.6201 8.11035V7.11035V6.11035C28.8184 6.11035 28.0239 5.95173 27.2821 5.64447L26.8994 6.56836ZM29.6201 7.11035H28.6201V12.2646H29.6201H30.6201V7.11035H29.6201ZM29.6201 12.2646V11.2646C28.141 11.2646 26.6761 10.9732 25.3094 10.4072L24.9268 11.3311L24.5441 12.2549C26.1533 12.9215 27.8783 13.2646 29.6201 13.2646V12.2646ZM24.9268 11.3311L25.3094 10.4072C24.5031 10.0732 23.7399 9.64354 23.0314 9.13238L22.4463 9.94336L21.8612 10.7543C22.6911 11.3531 23.5896 11.8596 24.5441 12.2549L24.9268 11.3311ZM22.4463 9.94336H21.4463V20.1318H22.4463H23.4463V9.94336H22.4463ZM22.4463 20.1318V19.1318H19.4385V20.1318V21.1318H22.4463V20.1318ZM19.4385 20.1318L19.4627 19.1321L18.8592 19.1175L18.835 20.1172L18.8107 21.1169L19.4142 21.1315L19.4385 20.1318ZM18.835 20.1172L18.8841 19.1184C17.5944 19.0549 16.3236 18.7697 15.1278 18.2744L14.7451 19.1982L14.3625 20.1221C15.7703 20.7053 17.2667 21.0412 18.7858 21.116L18.835 20.1172ZM14.7451 19.1982L15.1278 18.2744C14.3211 17.9402 13.5577 17.5112 12.8497 17.0005L12.2646 17.8115L11.6796 18.6225C12.5098 19.2215 13.4087 19.7271 14.3624 20.1221L14.7451 19.1982ZM12.2646 17.8115H11.2646V28H12.2646H13.2646V17.8115H12.2646ZM12.2646 28V27H7.11035V28V29H12.2646V28ZM7.11035 28H8.11035C8.11035 26.9353 7.90064 25.8804 7.49325 24.8967L6.56934 25.2793L5.64543 25.6619C5.95232 26.403 6.11035 27.1978 6.11035 28H7.11035ZM6.56934 25.2793L7.49321 24.8966C7.08549 23.9123 6.48719 23.0183 5.73444 22.2655L5.02734 22.9727L4.32024 23.6798C4.88789 24.2474 5.33858 24.9211 5.64546 25.662L6.56934 25.2793ZM5.02734 22.9727L5.73444 22.2655C4.9813 21.5124 4.08719 20.9153 3.10338 20.5078L2.7207 21.4316L2.33803 22.3555C3.07941 22.6626 3.75299 23.1125 4.32025 23.6798L5.02734 22.9727ZM2.7207 21.4316L3.10335 20.5077C2.12006 20.1005 1.06553 19.8896 0 19.8896V20.8896V21.8896C0.801678 21.8896 1.59625 22.0483 2.33805 22.3555L2.7207 21.4316ZM0 20.8896H1V15.7354H0H-1V20.8896H0ZM0 15.7354L4.37103e-08 16.7354C1.47911 16.7354 2.94409 17.0268 4.31071 17.5928L4.69336 16.6689L5.07601 15.7451C3.46685 15.0786 1.74182 14.7354 -4.37103e-08 14.7354L0 15.7354ZM4.69336 16.6689L4.31068 17.5928C5.11765 17.9271 5.88149 18.3555 6.58883 18.8657L7.17383 18.0547L7.75882 17.2437C6.92834 16.6446 6.02905 16.1398 5.07603 15.7451L4.69336 16.6689ZM7.17383 18.0547H8.17383V7.86816H7.17383H6.17383V18.0547H7.17383ZM7.17383 7.86816V8.86816H12.3281V7.86816V6.86816H7.17383V7.86816ZM12.3281 7.86816L11.3281 7.86819C11.3281 8.93363 11.5389 9.98823 11.9462 10.9716L12.8701 10.5889L13.794 10.2062C13.4868 9.46447 13.3281 8.66986 13.3281 7.86814L12.3281 7.86816ZM12.8701 10.5889L11.9463 10.9716C12.3537 11.9552 12.9509 12.8495 13.704 13.6026L14.4111 12.8955L15.1182 12.1884C14.5511 11.6213 14.1011 10.9475 13.794 10.2061L12.8701 10.5889ZM14.4111 12.8955L13.7041 13.6027C14.4571 14.3556 15.3514 14.9529 16.3351 15.3604L16.7178 14.4365L17.1004 13.5126C16.3592 13.2056 15.6854 12.7555 15.1182 12.1884L14.4111 12.8955ZM16.7178 14.4365L16.3351 15.3604C16.5753 15.4599 16.8183 15.5463 17.0625 15.6212L17.3555 14.665L17.6484 13.7089C17.4614 13.6516 17.2785 13.5864 17.1004 13.5126L16.7178 14.4365ZM17.3555 14.665H18.3555V0H17.3555H16.3555V14.665H17.3555ZM17.3555 0V1H22.5098V0V-1H17.3555V0Z" fill="black" mask="url(#path-1-inside-1_57_1365)"/>
</svg>
