<svg width="74" height="13" viewBox="0 0 74 13" fill="none" xmlns="http://www.w3.org/2000/svg">
<path d="M10.6395 0C10.6395 0.433491 10.7264 0.862814 10.8953 1.26331C11.0642 1.66377 11.3118 2.02754 11.6239 2.33405C11.9359 2.64055 12.3062 2.8838 12.7139 3.04969C13.1216 3.21558 13.5587 3.30099 14 3.30099V5.69421C13.2388 5.69421 12.485 5.54697 11.7817 5.26082C11.3659 5.09163 10.9727 4.87543 10.6094 4.61801V9.34711H9.1875L9.04476 9.34529C8.33217 9.32805 7.62848 9.18196 6.96918 8.91371C6.55336 8.74452 6.16023 8.52832 5.79688 8.27091V13H3.3605C3.3605 12.5665 3.27355 12.1372 3.10467 11.7367C2.93579 11.3362 2.68816 10.9725 2.37613 10.666C2.06409 10.3594 1.69377 10.1162 1.28608 9.95031C0.87837 9.78442 0.441306 9.69901 0 9.69901V7.30579C0.761235 7.30579 1.51503 7.45303 2.21832 7.73918C2.6341 7.90835 3.0273 8.12438 3.39062 8.38176V3.65289H5.827C5.827 4.08638 5.91395 4.51571 6.08283 4.9162C6.25171 5.31666 6.49934 5.68043 6.81137 5.98694C7.12341 6.29344 7.49373 6.5367 7.90142 6.70258C8.00034 6.74283 8.10111 6.77818 8.20312 6.80888V0H10.6395Z" fill="#838387" fill-opacity="0.4"/>
<path d="M73.9976 7.28459V12.0077H72.1741V7.76287C72.1741 7.46893 72.1019 7.20238 71.9574 6.96324C71.8129 6.71912 71.6186 6.5273 71.3745 6.3878C71.1353 6.24332 70.8688 6.17108 70.5748 6.17108C70.2809 6.17108 70.0119 6.24332 69.7677 6.3878C69.5286 6.5273 69.3368 6.71912 69.1923 6.96324C69.0528 7.20238 68.983 7.46893 68.983 7.76287V12.0077H67.1596L67.1521 4.53445H68.9756L68.983 5.19956C69.2371 4.93053 69.541 4.71878 69.8948 4.56434C70.2485 4.40491 70.6296 4.3252 71.0382 4.3252C71.5812 4.3252 72.077 4.45971 72.5253 4.72875C72.9737 4.9928 73.33 5.34902 73.594 5.79742C73.863 6.24083 73.9976 6.73655 73.9976 7.28459Z" fill="#838387" fill-opacity="0.4"/>
<path d="M60.5666 12.2017C59.8591 12.2017 59.194 12.0622 58.5712 11.7832C57.9484 11.4992 57.4004 11.1081 56.9271 10.6099C56.4538 10.1117 56.0826 9.53625 55.8136 8.88359C55.5446 8.22594 55.41 7.52346 55.41 6.77614C55.41 6.02882 55.5446 5.32883 55.8136 4.67617C56.0826 4.01852 56.4538 3.4406 56.9271 2.94238C57.4004 2.44417 57.9484 2.05556 58.5712 1.77656C59.194 1.49258 59.8591 1.35059 60.5666 1.35059C61.279 1.35059 61.9466 1.49258 62.5694 1.77656C63.1921 2.05556 63.7402 2.44417 64.2135 2.94238C64.6868 3.4406 65.0555 4.01852 65.3195 4.67617C65.5886 5.32883 65.7231 6.02882 65.7231 6.77614C65.7231 7.52346 65.5886 8.22594 65.3195 8.88359C65.0555 9.53625 64.6868 10.1117 64.2135 10.6099C63.7402 11.1081 63.1921 11.4992 62.5694 11.7832C61.9466 12.0622 61.279 12.2017 60.5666 12.2017ZM60.5666 10.3782C61.0249 10.3782 61.4559 10.2836 61.8594 10.0942C62.263 9.90493 62.6167 9.64585 62.9206 9.31703C63.2295 8.98323 63.4687 8.59961 63.638 8.16616C63.8124 7.73271 63.8996 7.26937 63.8996 6.77614C63.8996 6.28291 63.8124 5.81957 63.638 5.38612C63.4637 4.94769 63.222 4.56407 62.9131 4.23525C62.6092 3.90643 62.2555 3.64735 61.8519 3.45803C61.4534 3.26871 61.0249 3.17405 60.5666 3.17405C60.1082 3.17405 59.6772 3.26871 59.2737 3.45803C58.8701 3.64735 58.5139 3.90892 58.205 4.24272C57.9011 4.57154 57.662 4.95268 57.4876 5.38612C57.3182 5.81957 57.2335 6.28291 57.2335 6.77614C57.2335 7.27435 57.3207 7.74019 57.4951 8.17363C57.6694 8.60708 57.9086 8.9907 58.2125 9.32451C58.5214 9.65333 58.8751 9.9124 59.2737 10.1017C59.6772 10.2861 60.1082 10.3782 60.5666 10.3782Z" fill="#838387" fill-opacity="0.4"/>
<path d="M52.075 5.44594L52.5383 1.54492H54.3618L53.2931 5.44594H52.075Z" fill="#838387" fill-opacity="0.4"/>
<path d="M51.3478 12.0077H49.2478L47.5439 9.0707L46.4977 10.3187V12.0077H44.6742V0.797852H46.4977V7.48638L48.9713 4.53446H51.3552L48.7919 7.591L51.3478 12.0077Z" fill="#838387" fill-opacity="0.4"/>
<path d="M39.1349 12.0077L39.1274 4.53445H40.9509L40.9584 5.19956C41.2125 4.93053 41.5164 4.71878 41.8701 4.56434C42.2238 4.40491 42.605 4.3252 43.0135 4.3252C43.2875 4.3252 43.5616 4.36505 43.8356 4.44477L43.1181 6.28318C42.9288 6.20845 42.7395 6.17108 42.5502 6.17108C42.2562 6.17108 41.9872 6.24332 41.7431 6.3878C41.5039 6.5273 41.3121 6.71912 41.1676 6.96324C41.0281 7.20238 40.9584 7.46893 40.9584 7.76287V12.0077H39.1349Z" fill="#838387" fill-opacity="0.4"/>
<path d="M35.8151 4.53445H37.6386V12.0077H35.8151L35.7329 11.081C35.5287 11.4148 35.2571 11.6863 34.9183 11.8956C34.5845 12.0998 34.1885 12.202 33.7301 12.202C33.1771 12.202 32.6589 12.0973 32.1757 11.8881C31.6924 11.6788 31.2664 11.3899 30.8978 11.0212C30.5341 10.6525 30.2476 10.2265 30.0383 9.74328C29.8341 9.26001 29.7319 8.74187 29.7319 8.18885C29.7319 7.65576 29.8291 7.15505 30.0234 6.68673C30.2227 6.21841 30.4992 5.80738 30.8529 5.45365C31.2066 5.09992 31.6152 4.82341 32.0785 4.62412C32.5419 4.42484 33.0401 4.3252 33.5732 4.3252C34.0664 4.3252 34.5073 4.4348 34.8959 4.65402C35.2895 4.87323 35.6233 5.15223 35.8973 5.49102L35.8151 4.53445ZM33.6853 10.4458C34.0739 10.4458 34.4176 10.3486 34.7166 10.1543C35.0155 9.96 35.2497 9.69844 35.4191 9.36962C35.5884 9.03581 35.6731 8.66962 35.6731 8.27105C35.6731 7.8675 35.5884 7.50131 35.4191 7.17249C35.2497 6.83869 35.013 6.57463 34.7091 6.38033C34.4102 6.18603 34.0689 6.08887 33.6853 6.08887C33.3016 6.08887 32.9504 6.18852 32.6315 6.3878C32.3177 6.58211 32.0661 6.84367 31.8767 7.17249C31.6924 7.50131 31.6002 7.8675 31.6002 8.27105C31.6002 8.67461 31.6949 9.04079 31.8842 9.36962C32.0735 9.69844 32.3251 9.96 32.639 10.1543C32.9579 10.3486 33.3066 10.4458 33.6853 10.4458Z" fill="#838387" fill-opacity="0.4"/>
<path d="M17 12.0074L19.0327 1.54492H20.5423L23.0907 8.2484L25.639 1.54492H27.1486L29.1813 12.0074H27.3205L26.065 5.53562L23.7109 11.7683H22.4629L20.1089 5.53562L18.8608 12.0074H17Z" fill="#838387" fill-opacity="0.4"/>
</svg>
