<svg width="131" height="27" viewBox="0 0 131 27" fill="none" xmlns="http://www.w3.org/2000/svg">
<path d="M130.957 14.904V25.7558H126.768V16.0029C126.768 15.3276 126.602 14.7151 126.27 14.1657C125.938 13.6048 125.491 13.1641 124.93 12.8436C124.381 12.5116 123.768 12.3456 123.093 12.3456C122.418 12.3456 121.8 12.5116 121.239 12.8436C120.689 13.1641 120.249 13.6048 119.917 14.1657C119.596 14.7151 119.436 15.3276 119.436 16.0029V25.7558H115.246L115.229 8.58527H119.419L119.436 10.1134C120.02 9.4953 120.718 9.00881 121.531 8.65395C122.343 8.28764 123.219 8.10449 124.158 8.10449C125.405 8.10449 126.544 8.41356 127.575 9.0317C128.605 9.63839 129.423 10.4569 130.03 11.4871C130.648 12.5059 130.957 13.6449 130.957 14.904Z" fill="black"/>
<path d="M100.099 26.2016C98.4739 26.2016 96.9457 25.8811 95.5149 25.2401C94.084 24.5876 92.8248 23.689 91.7373 22.5443C90.6499 21.3996 89.7971 20.0775 89.1789 18.5779C88.5608 17.0669 88.2517 15.4529 88.2517 13.7358C88.2517 12.0188 88.5608 10.4105 89.1789 8.91091C89.7971 7.3999 90.6499 6.07205 91.7373 4.92734C92.8248 3.78264 94.084 2.88977 95.5149 2.24874C96.9457 1.59626 98.4739 1.27002 100.099 1.27002C101.736 1.27002 103.27 1.59626 104.701 2.24874C106.132 2.88977 107.391 3.78264 108.479 4.92734C109.566 6.07205 110.413 7.3999 111.02 8.91091C111.638 10.4105 111.947 12.0188 111.947 13.7358C111.947 15.4529 111.638 17.0669 111.02 18.5779C110.413 20.0775 109.566 21.3996 108.479 22.5443C107.391 23.689 106.132 24.5876 104.701 25.2401C103.27 25.8811 101.736 26.2016 100.099 26.2016ZM100.099 22.012C101.153 22.012 102.143 21.7945 103.07 21.3595C103.997 20.9246 104.81 20.3293 105.508 19.5738C106.218 18.8069 106.767 17.9254 107.156 16.9295C107.557 15.9337 107.757 14.8691 107.757 13.7358C107.757 12.6026 107.557 11.538 107.156 10.5421C106.756 9.53477 106.201 8.65335 105.491 7.89785C104.793 7.14234 103.98 6.5471 103.053 6.11211C102.137 5.67712 101.153 5.45963 100.099 5.45963C99.0463 5.45963 98.0561 5.67712 97.1289 6.11211C96.2017 6.5471 95.3832 7.14807 94.6735 7.91502C93.9752 8.67052 93.4258 9.54622 93.0251 10.5421C92.6359 11.538 92.4413 12.6026 92.4413 13.7358C92.4413 14.8805 92.6416 15.9508 93.0423 16.9467C93.4429 17.9426 93.9924 18.824 94.6907 19.591C95.4004 20.3465 96.2131 20.9417 97.1289 21.3767C98.0561 21.8003 99.0463 22.012 100.099 22.012Z" fill="black"/>
<path d="M80.5894 10.6793L81.6539 1.71631H85.8435L83.3882 10.6793H80.5894Z" fill="black"/>
<path d="M78.9178 25.7558H74.0928L70.178 19.0078L67.7741 21.8753V25.7558H63.5845V0H67.7741V15.3676L73.4575 8.58527H78.9349L73.0454 15.608L78.9178 25.7558Z" fill="black"/>
<path d="M50.8577 25.7558L50.8406 8.58527H55.0302L55.0474 10.1134C55.6312 9.4953 56.3294 9.00881 57.1422 8.65395C57.9549 8.28764 58.8306 8.10449 59.7693 8.10449C60.3988 8.10449 61.0284 8.19607 61.658 8.37922L60.0096 12.6032C59.5747 12.4315 59.1397 12.3456 58.7047 12.3456C58.0293 12.3456 57.4112 12.5116 56.8503 12.8436C56.3008 13.1641 55.8601 13.6048 55.5281 14.1657C55.2076 14.7151 55.0474 15.3276 55.0474 16.0029V25.7558H50.8577Z" fill="black"/>
<path d="M43.2295 8.58527H47.4191V25.7558H43.2295L43.0406 23.6267C42.5713 24.3936 41.9474 25.0175 41.169 25.4982C40.4021 25.9676 39.492 26.2022 38.4389 26.2022C37.1683 26.2022 35.9778 25.9618 34.8675 25.4811C33.7571 25.0003 32.7784 24.3364 31.9313 23.4893C31.0957 22.6422 30.4375 21.6635 29.9567 20.5531C29.4873 19.4428 29.2527 18.2523 29.2527 16.9817C29.2527 15.7568 29.4759 14.6064 29.9223 13.5304C30.3802 12.4544 31.0155 11.51 31.8283 10.6972C32.641 9.8845 33.5797 9.24919 34.6442 8.79131C35.7088 8.33343 36.8535 8.10449 38.0783 8.10449C39.2116 8.10449 40.2247 8.35633 41.1175 8.86C42.0218 9.36366 42.7888 10.0047 43.4184 10.7831L43.2295 8.58527ZM38.3359 22.1672C39.2288 22.1672 40.0186 21.9439 40.7054 21.4975C41.3923 21.0511 41.9303 20.4501 42.3195 19.6946C42.7087 18.9277 42.9033 18.0863 42.9033 17.1705C42.9033 16.2433 42.7087 15.402 42.3195 14.6465C41.9303 13.8795 41.3865 13.2728 40.6883 12.8264C40.0014 12.38 39.2173 12.1567 38.3359 12.1567C37.4545 12.1567 36.6475 12.3857 35.9149 12.8436C35.1937 13.29 34.6156 13.891 34.1806 14.6465C33.7571 15.402 33.5453 16.2433 33.5453 17.1705C33.5453 18.0977 33.7628 18.9391 34.1978 19.6946C34.6328 20.4501 35.2109 21.0511 35.932 21.4975C36.6646 21.9439 37.4659 22.1672 38.3359 22.1672Z" fill="black"/>
<path d="M0 25.7551L4.67039 1.71631H8.13883L13.994 17.1183L19.8491 1.71631H23.3176L27.988 25.7551H23.7125L20.8279 10.8854L15.4191 25.2056H12.5517L7.14294 10.8854L4.27546 25.7551H0Z" fill="black"/>
</svg>
