<svg width="138" height="128" viewBox="0 0 138 128" fill="none" xmlns="http://www.w3.org/2000/svg">
<path d="M104.875 0C104.875 4.26822 105.732 8.4954 107.397 12.4387C109.061 16.3818 111.502 19.9635 114.578 22.9814C117.654 25.9993 121.304 28.3944 125.323 30.0277C129.342 31.6611 133.65 32.502 138 32.502V56.0661C130.496 56.0661 123.066 54.6163 116.134 51.7989C112.035 50.133 108.16 48.0042 104.578 45.4697V92.0331H90.5625L89.1555 92.0151C82.1314 91.8454 75.195 90.407 68.6962 87.7658C64.5974 86.0999 60.7222 83.9711 57.1406 81.4366V128H33.1249C33.1249 123.732 32.2679 119.505 30.6032 115.561C28.9385 111.618 26.4976 108.037 23.4218 105.019C20.3461 102.001 16.6957 99.6056 12.6771 97.9723C8.65821 96.3389 4.35002 95.498 0 95.498V71.9339C7.5036 71.9339 14.9338 73.3837 21.8663 76.2011C25.9647 77.8668 29.8406 79.9939 33.4219 82.5281V35.9669H57.4376C57.4376 40.2352 58.2946 44.4623 59.9593 48.4057C61.624 52.3487 64.065 55.9304 67.1407 58.9483C70.2164 61.9662 73.8668 64.3613 77.8854 65.9947C78.8605 66.391 79.8538 66.739 80.8594 67.0413V0H104.875Z" fill="url(#paint0_linear_357_3294)"/>
<defs>
<linearGradient id="paint0_linear_357_3294" x1="18.5" y1="104" x2="182.5" y2="-20" gradientUnits="userSpaceOnUse">
<stop stop-color="#5EE59D"/>
<stop offset="1" stop-color="#14AE5C"/>
</linearGradient>
</defs>
</svg>
