<svg width="21" height="21" viewBox="0 0 21 21" fill="none" xmlns="http://www.w3.org/2000/svg">
<path d="M2.75684 11.2256C2.4873 11.2197 2.26465 11.1641 2.08887 11.0586C1.91309 10.9473 1.78125 10.8066 1.69336 10.6367C1.61133 10.4609 1.5791 10.2764 1.59668 10.083C1.61426 9.88379 1.68164 9.69922 1.79883 9.5293C1.91602 9.35938 2.08887 9.22168 2.31738 9.11621L16.3623 2.60352C16.6729 2.46289 16.957 2.4043 17.2148 2.42773C17.4785 2.44531 17.6953 2.5332 17.8652 2.69141C18.041 2.84375 18.1465 3.0459 18.1816 3.29785C18.2168 3.5498 18.1611 3.83691 18.0146 4.15918L11.5195 18.125C11.4023 18.377 11.2529 18.5674 11.0713 18.6963C10.8955 18.8311 10.708 18.9072 10.5088 18.9248C10.3096 18.9482 10.1221 18.916 9.94629 18.8281C9.77051 18.7461 9.62695 18.6172 9.51562 18.4414C9.41016 18.2656 9.35742 18.0459 9.35742 17.7822L9.33984 11.4277C9.33984 11.3105 9.28125 11.252 9.16406 11.252L2.75684 11.2256Z" fill="#14AE5C"/>
</svg>
