<svg width="10" height="17" viewBox="0 0 10 17" fill="none" xmlns="http://www.w3.org/2000/svg">
<path d="M10.0029 8.6543C10.0029 8.87109 9.95898 9.07324 9.87109 9.26074C9.78906 9.44238 9.65723 9.62109 9.47559 9.79688L2.83984 16.3008C2.57031 16.5703 2.24219 16.7051 1.85547 16.7051C1.60352 16.7051 1.36914 16.6406 1.15234 16.5117C0.935547 16.3887 0.762695 16.2217 0.633789 16.0107C0.510742 15.7998 0.449219 15.5654 0.449219 15.3076C0.449219 14.9209 0.598633 14.5752 0.897461 14.2705L6.68945 8.64551L0.897461 3.0293C0.598633 2.73633 0.449219 2.39355 0.449219 2.00098C0.449219 1.74316 0.510742 1.50879 0.633789 1.29785C0.762695 1.08691 0.935547 0.919922 1.15234 0.796875C1.36914 0.667969 1.60352 0.603516 1.85547 0.603516C2.24219 0.603516 2.57031 0.735352 2.83984 0.999023L9.47559 7.50293C9.65723 7.67871 9.78906 7.86035 9.87109 8.04785C9.95312 8.22949 9.99707 8.43164 10.0029 8.6543Z" fill="#9E9E9E"/>
</svg>
