<svg width="14" height="20" viewBox="0 0 14 20" fill="none" xmlns="http://www.w3.org/2000/svg">
<path d="M7 19.9429C6.94466 19.9429 6.87549 19.882 6.79248 19.7603C6.71501 19.6385 6.63477 19.4697 6.55176 19.2539C6.46875 19.0436 6.39958 18.7974 6.34424 18.5151C6.2889 18.2329 6.26123 17.9341 6.26123 17.6187V13.0615H7.73047V17.6187C7.73047 17.9341 7.7028 18.2329 7.64746 18.5151C7.59212 18.7974 7.52295 19.0436 7.43994 19.2539C7.35693 19.4697 7.27393 19.6385 7.19092 19.7603C7.11344 19.882 7.0498 19.9429 7 19.9429ZM1.77051 13.7422C1.39974 13.7422 1.10368 13.637 0.882324 13.4268C0.66097 13.2109 0.550293 12.9259 0.550293 12.5718C0.550293 11.9631 0.710775 11.3682 1.03174 10.7871C1.3527 10.2005 1.80094 9.6748 2.37646 9.20996C2.95752 8.73958 3.64095 8.36605 4.42676 8.08936C5.21257 7.80713 6.07031 7.66602 7 7.66602C7.92969 7.66602 8.78467 7.80713 9.56494 8.08936C10.3507 8.36605 11.0342 8.73958 11.6152 9.20996C12.1963 9.6748 12.6445 10.2005 12.96 10.7871C13.2809 11.3682 13.4414 11.9631 13.4414 12.5718C13.4414 12.9259 13.3307 13.2109 13.1094 13.4268C12.8936 13.637 12.5975 13.7422 12.2212 13.7422H1.77051ZM2.10254 12.4888H11.8892C12.0828 12.4888 12.1631 12.3781 12.1299 12.1567C12.0856 11.786 11.9362 11.4097 11.6816 11.0278C11.4271 10.6405 11.0785 10.2863 10.6357 9.96533C10.193 9.63883 9.66455 9.37598 9.05029 9.17676C8.44157 8.97754 7.75814 8.87793 7 8.87793C6.23633 8.87793 5.54736 8.97754 4.93311 9.17676C4.32438 9.37598 3.79867 9.63883 3.35596 9.96533C2.91325 10.2863 2.56462 10.6405 2.31006 11.0278C2.0555 11.4097 1.90609 11.786 1.86182 12.1567C1.82861 12.3781 1.90885 12.4888 2.10254 12.4888ZM1.60449 1.47363C1.60449 1.21908 1.69303 1.00879 1.87012 0.842773C2.0472 0.676758 2.28239 0.59375 2.57568 0.59375H11.4243C11.7121 0.59375 11.9445 0.676758 12.1216 0.842773C12.3042 1.00879 12.3955 1.21908 12.3955 1.47363C12.3955 1.73926 12.2876 2.00765 12.0718 2.27881C11.9334 2.46696 11.737 2.67448 11.4824 2.90137C11.2279 3.12826 10.9373 3.36344 10.6108 3.60693C10.2843 3.84489 9.94678 4.08008 9.59814 4.3125L9.90527 8.69531H8.57715L8.27832 3.69824C8.26725 3.59863 8.29492 3.53223 8.36133 3.49902C8.67122 3.33854 8.96175 3.17529 9.23291 3.00928C9.50407 2.84326 9.74202 2.68831 9.94678 2.54443C10.1515 2.39502 10.312 2.26774 10.4282 2.1626C10.55 2.05192 10.6191 1.97721 10.6357 1.93848C10.6689 1.88314 10.6717 1.84163 10.644 1.81396C10.6219 1.78076 10.5887 1.76416 10.5444 1.76416H3.44727C3.40299 1.76416 3.36702 1.78076 3.33936 1.81396C3.31722 1.84163 3.32275 1.88314 3.35596 1.93848C3.37256 1.97721 3.44173 2.05192 3.56348 2.1626C3.68522 2.26774 3.84847 2.39502 4.05322 2.54443C4.25798 2.68831 4.49316 2.84326 4.75879 3.00928C5.02995 3.17529 5.32048 3.33854 5.63037 3.49902C5.69678 3.53223 5.72721 3.59863 5.72168 3.69824L5.41455 8.69531H4.08643L4.39355 4.3125C4.04492 4.08008 3.70736 3.84489 3.38086 3.60693C3.0599 3.36344 2.76937 3.12826 2.50928 2.90137C2.25472 2.67448 2.05827 2.46696 1.91992 2.27881C1.70964 2.00765 1.60449 1.73926 1.60449 1.47363Z" fill="#14AE5C"/>
</svg>
