<svg width="20" height="19" viewBox="0 0 20 19" fill="none" xmlns="http://www.w3.org/2000/svg">
<path d="M9.85449 18.9355C8.57715 18.9355 7.37598 18.6924 6.25098 18.2061C5.13184 17.7256 4.14746 17.0605 3.29785 16.2109C2.44824 15.3613 1.78027 14.377 1.29395 13.2578C0.813477 12.1328 0.573242 10.9316 0.573242 9.6543C0.573242 8.37109 0.813477 7.16992 1.29395 6.05078C1.78027 4.92578 2.44824 3.93848 3.29785 3.08887C4.14746 2.23926 5.13184 1.57422 6.25098 1.09375C7.37598 0.613281 8.57715 0.373047 9.85449 0.373047C11.1377 0.373047 12.3389 0.613281 13.458 1.09375C14.583 1.57422 15.5703 2.23926 16.4199 3.08887C17.2695 3.93848 17.9346 4.92578 18.415 6.05078C18.9014 7.16992 19.1445 8.37109 19.1445 9.6543C19.1445 10.9316 18.9014 12.1328 18.415 13.2578C17.9346 14.377 17.2695 15.3613 16.4199 16.2109C15.5703 17.0605 14.583 17.7256 13.458 18.2061C12.3389 18.6924 11.1377 18.9355 9.85449 18.9355ZM9.85449 13.9082C10.1592 13.9082 10.4082 13.8115 10.6016 13.6182C10.8008 13.4248 10.9004 13.1816 10.9004 12.8887V10.6826H13.1064C13.3994 10.6826 13.6426 10.5859 13.8359 10.3926C14.0293 10.1934 14.126 9.94727 14.126 9.6543C14.126 9.34961 14.0293 9.10059 13.8359 8.90723C13.6426 8.70801 13.3994 8.6084 13.1064 8.6084H10.9004V6.41113C10.9004 6.1123 10.8008 5.86621 10.6016 5.67285C10.4082 5.47949 10.1592 5.38281 9.85449 5.38281C9.56152 5.38281 9.31543 5.47949 9.11621 5.67285C8.92285 5.86621 8.82617 6.1123 8.82617 6.41113V8.6084H6.62891C6.33594 8.6084 6.08984 8.70801 5.89062 8.90723C5.69727 9.10059 5.60059 9.34961 5.60059 9.6543C5.60059 9.94727 5.69727 10.1934 5.89062 10.3926C6.08984 10.5859 6.33594 10.6826 6.62891 10.6826H8.82617V12.8887C8.82617 13.1816 8.92285 13.4248 9.11621 13.6182C9.31543 13.8115 9.56152 13.9082 9.85449 13.9082Z" fill="#14AE5C"/>
</svg>
