<svg width="17" height="17" viewBox="0 0 17 17" fill="none" xmlns="http://www.w3.org/2000/svg">
<path d="M2.75195 16.6353C1.88867 16.6353 1.23844 16.4194 0.80127 15.9878C0.364095 15.5617 0.145508 14.9198 0.145508 14.062V4.49951C0.145508 3.64176 0.364095 2.99984 0.80127 2.57373C1.23844 2.14209 1.88867 1.92627 2.75195 1.92627H12.1567L10.8203 3.2627H2.77686C2.36182 3.2627 2.04085 3.37337 1.81396 3.59473C1.59261 3.81608 1.48193 4.14258 1.48193 4.57422V13.9956C1.48193 14.4272 1.59261 14.7537 1.81396 14.9751C2.04085 15.1909 2.36182 15.2988 2.77686 15.2988H12.4805C12.7682 15.2988 13.0117 15.1909 13.2109 14.9751C13.4157 14.7537 13.5181 14.4272 13.5181 13.9956V6.02686L14.8545 4.69043V14.062C14.8545 14.9198 14.647 15.5617 14.2319 15.9878C13.8224 16.4194 13.2441 16.6353 12.4971 16.6353H2.75195ZM5.77344 11.2563C5.69596 11.2896 5.62402 11.2729 5.55762 11.2065C5.49674 11.1346 5.48291 11.0627 5.51611 10.9907L6.26318 9.43018L14.0078 1.68555L15.145 2.80615L7.39209 10.5508L5.77344 11.2563ZM15.7593 2.2002L14.6221 1.05469L15.228 0.457031C15.3664 0.324219 15.5241 0.252279 15.7012 0.241211C15.8838 0.230143 16.0387 0.288249 16.166 0.415527L16.3569 0.614746C16.5008 0.753092 16.57 0.913574 16.5645 1.09619C16.5645 1.27327 16.4953 1.43652 16.3569 1.58594L15.7593 2.2002Z" fill="#14AE5C"/>
</svg>
