<svg width="27" height="26" viewBox="0 0 27 26" fill="none" xmlns="http://www.w3.org/2000/svg">
<path d="M5.47266 24.9297C5.23047 24.75 5.08203 24.5078 5.02734 24.2031C4.98047 23.8984 5.03125 23.5352 5.17969 23.1133L7.62891 15.8242L1.37109 11.3242C1.00391 11.0664 0.75 10.8008 0.609375 10.5273C0.46875 10.2539 0.445312 9.97266 0.539062 9.68359C0.632812 9.40234 0.816406 9.19141 1.08984 9.05078C1.36328 8.91016 1.72656 8.84375 2.17969 8.85156L9.85547 8.89844L12.1875 1.57422C12.3281 1.14453 12.5039 0.820313 12.7148 0.601562C12.9336 0.382812 13.1914 0.273438 13.4883 0.273438C13.793 0.273438 14.0508 0.382812 14.2617 0.601562C14.4805 0.820313 14.6602 1.14453 14.8008 1.57422L17.1328 8.89844L24.8086 8.85156C25.2617 8.84375 25.625 8.91016 25.8984 9.05078C26.1719 9.19141 26.3555 9.40234 26.4492 9.68359C26.543 9.97266 26.5195 10.2539 26.3789 10.5273C26.2383 10.8008 25.9844 11.0664 25.6172 11.3242L19.3594 15.8242L21.8086 23.1133C21.957 23.5352 22.0039 23.8984 21.9492 24.2031C21.9023 24.5078 21.7578 24.75 21.5156 24.9297C21.2734 25.1172 21 25.1797 20.6953 25.1172C20.3906 25.0625 20.0586 24.9062 19.6992 24.6484L13.4883 20.0898L7.28906 24.6484C6.92969 24.9062 6.59766 25.0625 6.29297 25.1172C5.98828 25.1797 5.71484 25.1172 5.47266 24.9297ZM13.4883 18.0742C13.6914 18.0586 13.8906 18.1289 14.0859 18.2852L19.7227 22.5859C19.7773 22.625 19.8125 22.6328 19.8281 22.6094C19.8359 22.5938 19.8359 22.5586 19.8281 22.5039L17.4961 15.8008C17.4414 15.6523 17.4141 15.5117 17.4141 15.3789C17.4219 15.2461 17.4609 15.125 17.5312 15.0156C17.6016 14.8984 17.7031 14.793 17.8359 14.6992L23.6719 10.668C23.7266 10.6367 23.7461 10.6055 23.7305 10.5742C23.7227 10.5508 23.6875 10.5391 23.625 10.5391L16.5352 10.668C16.293 10.6758 16.0938 10.6289 15.9375 10.5273C15.7812 10.418 15.668 10.2422 15.5977 10L13.5586 3.21484C13.543 3.15234 13.5195 3.12109 13.4883 3.12109V18.0742Z" fill="#14AE5C"/>
</svg>
