<svg width="27" height="26" viewBox="0 0 27 26" fill="none" xmlns="http://www.w3.org/2000/svg">
<path d="M5.47266 24.9297C5.23047 24.75 5.08203 24.5078 5.02734 24.2031C4.98047 23.8984 5.03125 23.5352 5.17969 23.1133L7.62891 15.8242L1.37109 11.3242C1.00391 11.0664 0.75 10.8008 0.609375 10.5273C0.46875 10.2539 0.445312 9.97266 0.539062 9.68359C0.632812 9.40234 0.816406 9.19531 1.08984 9.0625C1.36328 8.92188 1.72656 8.85156 2.17969 8.85156H9.85547L12.1875 1.57422C12.3281 1.14453 12.5039 0.820313 12.7148 0.601562C12.9336 0.382812 13.1914 0.273438 13.4883 0.273438C13.793 0.273438 14.0508 0.382812 14.2617 0.601562C14.4805 0.820313 14.6602 1.14453 14.8008 1.57422L17.1328 8.85156H24.8086C25.2617 8.85156 25.625 8.92188 25.8984 9.0625C26.1719 9.19531 26.3555 9.40234 26.4492 9.68359C26.543 9.97266 26.5195 10.2539 26.3789 10.5273C26.2383 10.8008 25.9844 11.0664 25.6172 11.3242L19.3594 15.8242L21.8086 23.1133C21.957 23.5352 22.0039 23.8984 21.9492 24.2031C21.9023 24.5078 21.7578 24.75 21.5156 24.9297C21.2734 25.1172 21 25.1797 20.6953 25.1172C20.3906 25.0625 20.0586 24.9062 19.6992 24.6484L13.4883 20.0898L7.28906 24.6484C6.92969 24.9062 6.59766 25.0625 6.29297 25.1172C5.98828 25.1797 5.71484 25.1172 5.47266 24.9297Z" fill="#14AE5C"/>
</svg>
