<svg width="16" height="16" viewBox="0 0 16 16" fill="none" xmlns="http://www.w3.org/2000/svg">
<path d="M6.5 0C10.0899 0 13 2.91015 13 6.5C13 7.93401 12.5336 9.25809 11.7471 10.333L15.707 14.293L15.7754 14.3691C16.0957 14.7619 16.0731 15.3409 15.707 15.707C15.3409 16.0731 14.7619 16.0957 14.3691 15.7754L14.293 15.707L10.333 11.7471C9.25809 12.5336 7.93401 13 6.5 13C2.91015 13 0 10.0899 0 6.5C0 2.91015 2.91015 0 6.5 0ZM6.5 1.5C3.73858 1.5 1.5 3.73858 1.5 6.5C1.5 9.26142 3.73858 11.5 6.5 11.5C9.26142 11.5 11.5 9.26142 11.5 6.5C11.5 3.73858 9.26142 1.5 6.5 1.5Z" fill="#838387"/>
</svg>
