<svg width="18" height="23" viewBox="0 0 18 23" fill="none" xmlns="http://www.w3.org/2000/svg">
<path d="M6 8.0918H3C2.17157 8.0918 1.5 8.76337 1.5 9.5918V19.5918C1.5 20.4202 2.17157 21.0918 3 21.0918H15C15.8284 21.0918 16.5 20.4202 16.5 19.5918V9.5918C16.5 8.76337 15.8284 8.0918 15 8.0918H12V6.5918H15L15.1543 6.5957C16.7394 6.67601 18 7.98669 18 9.5918V19.5918C18 21.1969 16.7394 22.5076 15.1543 22.5879L15 22.5918H3C1.34315 22.5918 0 21.2486 0 19.5918V9.5918C0 7.93494 1.34315 6.5918 3 6.5918H6V8.0918ZM8.27637 0.230469C8.70886 -0.0768432 9.29115 -0.0768621 9.72363 0.230469L9.81348 0.300781L12.9883 3.02246L13.0439 3.0752C13.306 3.35047 13.322 3.78527 13.0693 4.08008C12.7997 4.39442 12.3262 4.43065 12.0117 4.16113L9.75 2.22266V13.5918C9.75 14.006 9.41421 14.3418 9 14.3418C8.58579 14.3418 8.25 14.006 8.25 13.5918V2.22266L5.98828 4.16113C5.67384 4.43065 5.20025 4.39442 4.93066 4.08008C4.66115 3.76564 4.69737 3.29205 5.01172 3.02246L8.18652 0.300781L8.27637 0.230469Z" fill="#191919"/>
</svg>
