<svg width="18" height="23" viewBox="0 0 18 23" fill="none" xmlns="http://www.w3.org/2000/svg">
<path d="M6 8.09182H3C2.17157 8.09182 1.5 8.76339 1.5 9.59182V19.5918C1.5 20.4202 2.17157 21.0918 3 21.0918H15C15.8284 21.0918 16.5 20.4202 16.5 19.5918V9.59182C16.5 8.76339 15.8284 8.09182 15 8.09182H12V6.59182H15L15.1543 6.59573C16.7394 6.67603 18 7.98671 18 9.59182V19.5918C18 21.1969 16.7394 22.5076 15.1543 22.5879L15 22.5918H3C1.34315 22.5918 0 21.2487 0 19.5918V9.59182C0 7.93497 1.34315 6.59182 3 6.59182H6V8.09182ZM8.27637 0.230491C8.70886 -0.0768209 9.29115 -0.0768398 9.72363 0.230491L9.81348 0.300804L12.9883 3.02248L13.0439 3.07522C13.306 3.35049 13.322 3.78529 13.0693 4.0801C12.7997 4.39445 12.3262 4.43067 12.0117 4.16116L9.75 2.22268V13.5918C9.75 14.006 9.41421 14.3418 9 14.3418C8.58579 14.3418 8.25 14.006 8.25 13.5918V2.22268L5.98828 4.16116C5.67384 4.43068 5.20025 4.39445 4.93066 4.0801C4.66115 3.76566 4.69737 3.29207 5.01172 3.02248L8.18652 0.300804L8.27637 0.230491Z" fill="white"/>
</svg>
