<svg width="16" height="19" viewBox="0 0 16 19" fill="none" xmlns="http://www.w3.org/2000/svg">
<path d="M3.23535 18.9136C2.36654 18.9136 1.71354 18.6978 1.27637 18.2661C0.844727 17.84 0.628906 17.1981 0.628906 16.3403V8.14746C0.628906 7.28971 0.844727 6.64779 1.27637 6.22168C1.71354 5.79004 2.36654 5.57422 3.23535 5.57422H5.77539V6.91064H3.25195C2.83691 6.91064 2.51872 7.02132 2.29736 7.24268C2.07601 7.4585 1.96533 7.78223 1.96533 8.21387V16.2739C1.96533 16.7056 2.07601 17.0293 2.29736 17.2451C2.51872 17.4665 2.83691 17.5771 3.25195 17.5771H12.7314C13.141 17.5771 13.4591 17.4665 13.686 17.2451C13.9129 17.0293 14.0264 16.7056 14.0264 16.2739V8.21387C14.0264 7.78223 13.9129 7.4585 13.686 7.24268C13.4591 7.02132 13.141 6.91064 12.7314 6.91064H10.208V5.57422H12.7563C13.6252 5.57422 14.2754 5.79004 14.707 6.22168C15.1442 6.64779 15.3628 7.28971 15.3628 8.14746V16.3403C15.3628 17.1981 15.1442 17.84 14.707 18.2661C14.2754 18.6978 13.6252 18.9136 12.7563 18.9136H3.23535ZM7.9917 12.4058C7.81462 12.4058 7.65967 12.3421 7.52686 12.2148C7.39958 12.0876 7.33594 11.9382 7.33594 11.7666V3.31641L7.38574 2.07959L6.9209 2.56934L5.63428 3.93896C5.51807 4.07178 5.36589 4.13818 5.17773 4.13818C5.00618 4.13818 4.8623 4.08285 4.74609 3.97217C4.63542 3.86149 4.58008 3.72314 4.58008 3.55713C4.58008 3.39665 4.64648 3.25 4.7793 3.11719L7.51025 0.477539C7.5988 0.394531 7.67904 0.339193 7.75098 0.311523C7.82845 0.27832 7.90869 0.261719 7.9917 0.261719C8.08024 0.261719 8.16048 0.27832 8.23242 0.311523C8.3099 0.339193 8.39014 0.394531 8.47314 0.477539L11.2124 3.11719C11.3397 3.25 11.4033 3.39665 11.4033 3.55713C11.4033 3.72314 11.3452 3.86149 11.229 3.97217C11.1128 4.08285 10.9689 4.13818 10.7974 4.13818C10.6147 4.13818 10.4653 4.07178 10.3491 3.93896L9.0708 2.56934L8.60596 2.07959L8.65576 3.31641V11.7666C8.65576 11.9382 8.58936 12.0876 8.45654 12.2148C8.32926 12.3421 8.17432 12.4058 7.9917 12.4058Z" fill="#14AE5C"/>
</svg>
