<svg width="23" height="23" viewBox="0 0 23 23" fill="none" xmlns="http://www.w3.org/2000/svg">
<path d="M9.84135 1.49787C10.3634 -0.104759 12.6366 -0.104758 13.1587 1.49787L14.6781 6.16438C14.9115 6.88117 15.5805 7.36664 16.3357 7.36674H21.2536C22.9422 7.36714 23.6441 9.52336 22.2782 10.5141L18.2999 13.3985C17.6888 13.8416 17.4335 14.6267 17.6669 15.3435L19.1863 20.01C19.6919 21.5629 17.9819 22.8629 16.6322 22.0419L16.503 21.956L12.5246 19.0715C11.9136 18.6286 11.0864 18.6286 10.4754 19.0715L6.49699 21.956L6.36779 22.0419C5.01811 22.8629 3.30807 21.5629 3.8137 20.01L5.33313 15.3435C5.55189 14.6714 5.34111 13.9394 4.81029 13.4855L4.70012 13.3985L0.721751 10.5141C-0.644118 9.52336 0.0578167 7.36714 1.74639 7.36674H6.66426L6.80449 7.36175C7.50133 7.30583 8.10307 6.83648 8.32191 6.16438L9.84135 1.49787ZM11.5 1.83169C11.4414 1.83169 11.3972 1.8481 11.3728 1.86467C11.3582 1.87461 11.3293 1.89705 11.3047 1.97262L9.78526 6.63913C9.3459 7.98845 8.08603 8.90182 6.66426 8.90193H1.74639C1.66702 8.90201 1.63713 8.92316 1.62319 8.93391C1.59988 8.95195 1.57017 8.98828 1.55208 9.04385C1.53399 9.09947 1.53681 9.14654 1.54507 9.17478C1.55008 9.1918 1.56213 9.22628 1.6262 9.27273L5.60457 12.1562C6.75488 12.9902 7.23586 14.4688 6.79647 15.8182L5.27704 20.4848C5.25246 20.5603 5.26307 20.5951 5.26903 20.6117C5.27896 20.6393 5.3039 20.6793 5.35116 20.7136C5.39861 20.748 5.44487 20.7597 5.47436 20.7606C5.49203 20.7611 5.52835 20.7601 5.59255 20.7136L9.57091 17.8292C10.7211 16.9954 12.2789 16.9954 13.4291 17.8292L17.4075 20.7136C17.4717 20.7601 17.508 20.7611 17.5256 20.7606C17.5551 20.7597 17.6014 20.748 17.6488 20.7136C17.6961 20.6793 17.721 20.6393 17.731 20.6117C17.7369 20.5951 17.7475 20.5603 17.723 20.4848L16.2035 15.8182C15.7641 14.4688 16.2451 12.9902 17.3954 12.1562L21.3738 9.27273C21.4379 9.22628 21.4499 9.1918 21.4549 9.17478C21.4632 9.14654 21.466 9.09947 21.4479 9.04385C21.4298 8.98828 21.4001 8.95195 21.3768 8.93391C21.3629 8.92316 21.333 8.90201 21.2536 8.90193H16.3357C14.914 8.90182 13.6541 7.98845 13.2147 6.63913L11.6953 1.97262C11.6707 1.89705 11.6418 1.87461 11.6272 1.86467C11.6028 1.8481 11.5586 1.83169 11.5 1.83169Z" fill="#191919"/>
</svg>
