<svg width="16" height="15" viewBox="0 0 16 15" fill="none" xmlns="http://www.w3.org/2000/svg">
<path d="M3.30664 14.709C3.16536 14.6042 3.07878 14.4629 3.04688 14.2852C3.01953 14.1074 3.04915 13.8955 3.13574 13.6494L4.56445 9.39746L0.914062 6.77246C0.69987 6.62207 0.551758 6.46712 0.469727 6.30762C0.387695 6.14811 0.374023 5.98405 0.428711 5.81543C0.483398 5.65137 0.590495 5.5306 0.75 5.45312C0.909505 5.37109 1.12142 5.33008 1.38574 5.33008H5.86328L7.22363 1.08496C7.30566 0.83431 7.4082 0.645182 7.53125 0.517578C7.65885 0.389974 7.80924 0.326172 7.98242 0.326172C8.16016 0.326172 8.31055 0.389974 8.43359 0.517578C8.5612 0.645182 8.66602 0.83431 8.74805 1.08496L10.1084 5.33008H14.5859C14.8503 5.33008 15.0622 5.37109 15.2217 5.45312C15.3812 5.5306 15.4883 5.65137 15.543 5.81543C15.5977 5.98405 15.584 6.14811 15.502 6.30762C15.4199 6.46712 15.2718 6.62207 15.0576 6.77246L11.4072 9.39746L12.8359 13.6494C12.9225 13.8955 12.9499 14.1074 12.918 14.2852C12.8906 14.4629 12.8063 14.6042 12.665 14.709C12.5238 14.8184 12.3643 14.8548 12.1865 14.8184C12.0088 14.7865 11.8151 14.6953 11.6055 14.5449L7.98242 11.8857L4.36621 14.5449C4.15658 14.6953 3.96289 14.7865 3.78516 14.8184C3.60742 14.8548 3.44792 14.8184 3.30664 14.709Z" fill="#FF9500"/>
</svg>
