<svg width="17" height="16" viewBox="0 0 17 16" fill="none" xmlns="http://www.w3.org/2000/svg">
<path d="M7.54883 1.54492C7.84824 0.623762 9.15176 0.623762 9.45117 1.54492L10.2695 4.06445C10.5373 4.88845 11.3055 5.44629 12.1719 5.44629H14.8203C15.789 5.44629 16.1918 6.68546 15.4082 7.25488L13.2656 8.8125C12.5647 9.32179 12.2713 10.2248 12.5391 11.0488L13.3574 13.5674C13.6568 14.4887 12.6021 15.2549 11.8184 14.6855L9.67578 13.1289C8.97481 12.6196 8.02519 12.6196 7.32422 13.1289L5.18164 14.6855C4.39793 15.2549 3.34323 14.4887 3.64258 13.5674L4.46094 11.0488C4.72869 10.2248 4.43535 9.32179 3.73438 8.8125L1.5918 7.25488C0.808181 6.68546 1.211 5.44629 2.17969 5.44629H4.82812C5.69455 5.44629 6.4627 4.88845 6.73047 4.06445L7.54883 1.54492Z" stroke="#8A8A8D"/>
</svg>
